PathFileType	4	(x/y/z)	S02_BK_Cal_T01
DataRate	CameraRate	NumFrames	NumMarkers	Units	OrigDataRate	OrigDataStartFrame	OrigNumFrames
240	240	10	51	mm	240	901	2400
Frame#	Time	Sternum			R.Acromium			L.Acromium			Top.Head			R.ASIS			L.ASIS			R.PSIS			L.PSIS			R.Great.Tro			L.Great.Tro			R.Iliac.Crest			L.Iliac.Crest			V.Sacral			R.Thigh.Upper.Post			R.Thigh.Lower.Ant			R.Thigh.Lower.Post			R.Thigh.Upper.Ant			R.Knee.Lat			R.Knee.Med			R.Shank.Upper.Post			R.Shank.Lower.Ant			R.Shank.Lower.Post			R.Shank.Upper.Ant			R.Ankle.Lat			R.Ankle.Med			R.Heel.Upper			R.Heel.Med			R.Heel.Lat			R.Toe.Lat			R.Toe.Med			R.Toe.Tip			L.Thigh.Upper.Post			L.Thigh.Lower.Ant			L.Thigh.Lower.Post			L.Thigh.Upper.Ant			L.Knee.Lat			L.Knee.Med			L.Shank.Upper.Post			L.Shank.Lower.Ant			L.Shank.Lower.Post			L.Shank.Upper.Ant			L.Ankle.Lat			L.Ankle.Med			L.Heel.Upper			L.Heel.Med			L.Heel.Lat			L.Toe.Lat			L.Toe.Med			L.Toe.Tip			Cervical.Spine			Back			
		X1	Y1	Z1	X2	Y2	Z2	X3	Y3	Z3	X4	Y4	Z4	X5	Y5	Z5	X6	Y6	Z6	X7	Y7	Z7	X8	Y8	Z8	X9	Y9	Z9	X10	Y10	Z10	X11	Y11	Z11	X12	Y12	Z12	X13	Y13	Z13	X14	Y14	Z14	X15	Y15	Z15	X16	Y16	Z16	X17	Y17	Z17	X18	Y18	Z18	X19	Y19	Z19	X20	Y20	Z20	X21	Y21	Z21	X22	Y22	Z22	X23	Y23	Z23	X24	Y24	Z24	X25	Y25	Z25	X26	Y26	Z26	X27	Y27	Z27	X28	Y28	Z28	X29	Y29	Z29	X30	Y30	Z30	X31	Y31	Z31	X32	Y32	Z32	X33	Y33	Z33	X34	Y34	Z34	X35	Y35	Z35	X36	Y36	Z36	X37	Y37	Z37	X38	Y38	Z38	X39	Y39	Z39	X40	Y40	Z40	X41	Y41	Z41	X42	Y42	Z42	X43	Y43	Z43	X44	Y44	Z44	X45	Y45	Z45	X46	Y46	Z46	X47	Y47	Z47	X48	Y48	Z48	X49	Y49	Z49	X50	Y50	Z50	X51	Y51	Z51	

901	3.75	627.79	1068.1	313.55	526.39	1307.8	460.01	515.55	1306.3	164.39	567.72	1596.3	309.82	587.74	882.45	417.98	582.71	875.42	203.59	366.64	915.99	368.15	359.96	917.7	293.11	518.77	779.28	514.47	458.46	791.95	120.85	489.78	935.21	477.04	461.72	931.89	146.33	340.28	867.5	325.83	583.46	587.82	509.99	659.41	525.83	480.82	593.24	498.55	495.5	645.52	613.82	492.03	628.92	427.75	485.22	625.87	404.65	345.98	494.77	257.18	477.42	537.29	156.11	468.33	477.09	185.96	473.4	558.26	222	480.88	459.01	90.512	466.46	473.97	96.542	382.12	399.53	73.515	406.35	416.69	40.538	381.46	398.21	42.545	443.05	552.67	41.545	508.05	600.09	34.809	405.69	639.17	63.894	467.98	511.46	566.37	124.51	609.45	517.24	110.76	543.98	481.65	137.43	569.14	603.68	101.11	617.3	434.57	113.87	632.52	421.08	249.84	498.16	292.18	113.53	541.79	189.2	113.13	477.85	221.22	123.63	556.67	264	104.62	465.27	103.19	123.25	485.52	92.931	205.13	406.43	67.462	162.68	420.38	40.821	193.98	408.13	40.265	133.58	567.72	36.88	79.246	604.8	45.716	184.34	657.37	62.983	129.83	445.58	1367.2	313.98	370.72	1118.9	326.4
902	3.7542	627.82	1068.1	313.53	526.42	1307.8	459.98	515.59	1306.4	164.36	567.73	1596.3	309.77	587.77	882.46	417.96	582.73	875.42	203.56	366.66	916.02	368.14	359.99	917.72	293.09	518.79	779.3	514.45	458.48	791.97	120.83	489.81	935.22	477.01	461.73	931.91	146.31	340.29	867.52	325.81	583.47	587.82	509.97	659.41	525.83	480.8	593.24	498.56	495.48	645.53	613.83	492.01	628.92	427.76	485.2	625.85	404.66	345.96	494.77	257.19	477.42	537.29	156.11	468.32	477.09	185.97	473.4	558.27	221.97	480.78	459.01	90.514	466.46	473.97	96.543	382.11	399.53	73.514	406.35	416.69	40.538	381.46	398.21	42.547	443.05	552.67	41.546	508.05	600.09	34.809	405.69	639.17	63.895	467.98	511.46	566.38	124.49	609.45	517.25	110.76	543.98	481.66	137.4	569.15	603.69	101.08	617.3	434.58	113.86	632.49	421.08	249.83	498.15	292.18	113.52	541.78	189.2	113.12	477.84	221.21	123.62	556.66	264	104.61	465.27	103.19	123.25	485.52	92.931	205.13	406.43	67.462	162.68	420.38	40.822	193.97	408.13	40.264	133.58	567.72	36.879	79.245	604.8	45.717	184.34	657.37	62.984	129.83	445.62	1367.2	313.93	370.76	1118.9	326.37
903	3.7583	627.84	1068.1	313.51	526.45	1307.8	459.94	515.63	1306.4	164.33	567.75	1596.4	309.73	587.79	882.47	417.93	582.74	875.43	203.54	366.68	916.04	368.12	360.01	917.73	293.08	518.81	779.31	514.43	458.49	791.98	120.81	489.84	935.23	476.99	461.75	931.93	146.28	340.31	867.55	325.8	583.48	587.83	509.95	659.42	525.84	480.78	593.24	498.57	495.46	645.54	613.83	491.98	628.91	427.76	485.18	625.84	404.66	345.95	494.77	257.2	477.41	537.29	156.12	468.32	477.08	185.97	473.39	558.29	221.95	480.68	459.01	90.516	466.46	473.97	96.544	382.11	399.53	73.513	406.35	416.69	40.539	381.46	398.21	42.548	443.05	552.67	41.546	508.05	600.09	34.81	405.69	639.17	63.896	467.98	511.46	566.39	124.47	609.46	517.26	110.76	543.97	481.67	137.38	569.15	603.7	101.06	617.29	434.58	113.84	632.47	421.08	249.81	498.14	292.18	113.51	541.78	189.2	113.11	477.83	221.21	123.62	556.65	264	104.6	465.27	103.19	123.24	485.52	92.931	205.12	406.43	67.461	162.67	420.38	40.823	193.97	408.13	40.263	133.58	567.72	36.878	79.244	604.8	45.718	184.34	657.37	62.985	129.82	445.65	1367.3	313.88	370.79	1119	326.35
904	3.7625	627.87	1068.1	313.49	526.48	1307.8	459.91	515.66	1306.4	164.3	567.76	1596.4	309.68	587.81	882.49	417.9	582.76	875.44	203.51	366.71	916.07	368.1	360.04	917.75	293.06	518.83	779.33	514.41	458.5	792	120.79	489.87	935.24	476.97	461.76	931.96	146.26	340.33	867.57	325.78	583.49	587.84	509.93	659.42	525.84	480.76	593.24	498.58	495.44	645.54	613.84	491.96	628.91	427.77	485.17	625.83	404.66	345.93	494.76	257.21	477.41	537.29	156.12	468.31	477.08	185.97	473.38	558.3	221.93	480.59	459.01	90.518	466.46	473.97	96.545	382.11	399.54	73.511	406.35	416.69	40.54	381.46	398.21	42.55	443.05	552.67	41.547	508.05	600.09	34.81	405.69	639.17	63.898	467.98	511.46	566.4	124.45	609.46	517.26	110.76	543.97	481.69	137.35	569.16	603.71	101.04	617.28	434.59	113.83	632.45	421.08	249.8	498.14	292.18	113.5	541.77	189.2	113.11	477.83	221.21	123.61	556.65	264.01	104.59	465.27	103.19	123.24	485.51	92.931	205.12	406.43	67.461	162.67	420.38	40.825	193.97	408.13	40.262	133.58	567.72	36.877	79.243	604.8	45.719	184.34	657.37	62.986	129.82	445.69	1367.3	313.84	370.82	1119	326.32
905	3.7667	627.9	1068.1	313.47	526.52	1307.8	459.87	515.7	1306.4	164.27	567.78	1596.4	309.64	587.83	882.5	417.88	582.77	875.45	203.49	366.73	916.1	368.08	360.06	917.77	293.05	518.85	779.35	514.38	458.51	792.02	120.77	489.9	935.25	476.94	461.78	931.98	146.23	340.35	867.59	325.76	583.49	587.84	509.9	659.42	525.84	480.74	593.24	498.59	495.42	645.55	613.84	491.94	628.91	427.78	485.15	625.81	404.67	345.92	494.76	257.22	477.4	537.29	156.12	468.31	477.08	185.97	473.37	558.31	221.92	480.52	459.01	90.521	466.46	473.97	96.545	382.11	399.54	73.509	406.36	416.69	40.541	381.46	398.21	42.552	443.05	552.67	41.548	508.05	600.09	34.81	405.69	639.17	63.9	467.98	511.46	566.41	124.43	609.47	517.27	110.76	543.97	481.7	137.33	569.16	603.72	101.02	617.28	434.59	113.81	632.43	421.08	249.78	498.13	292.18	113.49	541.77	189.2	113.1	477.82	221.21	123.6	556.64	264.01	104.58	465.26	103.19	123.24	485.51	92.931	205.12	406.43	67.461	162.67	420.38	40.826	193.97	408.13	40.261	133.58	567.72	36.876	79.242	604.8	45.72	184.33	657.37	62.988	129.82	445.72	1367.3	313.79	370.86	1119	326.3
906	3.7708	627.93	1068.1	313.46	526.55	1307.9	459.83	515.74	1306.4	164.24	567.79	1596.4	309.59	587.85	882.51	417.85	582.79	875.46	203.46	366.75	916.12	368.06	360.08	917.79	293.03	518.87	779.36	514.36	458.51	792.03	120.75	489.93	935.27	476.92	461.79	932	146.21	340.37	867.61	325.74	583.5	587.85	509.88	659.42	525.85	480.72	593.24	498.61	495.4	645.55	613.85	491.92	628.9	427.78	485.14	625.8	404.67	345.9	494.76	257.23	477.4	537.29	156.13	468.31	477.08	185.97	473.36	558.32	221.91	480.45	459.01	90.523	466.46	473.97	96.546	382.11	399.54	73.507	406.36	416.69	40.542	381.46	398.21	42.553	443.05	552.67	41.549	508.05	600.09	34.81	405.69	639.18	63.902	467.97	511.46	566.42	124.4	609.47	517.28	110.76	543.96	481.71	137.3	569.17	603.73	101	617.27	434.6	113.79	632.42	421.09	249.77	498.12	292.18	113.48	541.76	189.19	113.09	477.82	221.21	123.59	556.64	264.01	104.57	465.26	103.19	123.23	485.51	92.931	205.11	406.43	67.461	162.67	420.37	40.828	193.97	408.13	40.259	133.58	567.72	36.875	79.241	604.8	45.722	184.33	657.37	62.989	129.82	445.76	1367.3	313.75	370.89	1119	326.27
907	3.775	627.96	1068.1	313.44	526.59	1307.9	459.8	515.78	1306.4	164.21	567.81	1596.4	309.54	587.87	882.53	417.82	582.8	875.47	203.44	366.78	916.15	368.04	360.11	917.81	293.01	518.89	779.38	514.34	458.52	792.05	120.72	489.96	935.28	476.9	461.81	932.02	146.18	340.39	867.63	325.73	583.5	587.85	509.86	659.42	525.85	480.7	593.24	498.62	495.39	645.56	613.85	491.9	628.9	427.79	485.12	625.79	404.68	345.89	494.76	257.24	477.39	537.29	156.13	468.3	477.07	185.97	473.35	558.33	221.91	480.41	459.01	90.526	466.46	473.97	96.546	382.1	399.54	73.506	406.36	416.69	40.543	381.46	398.21	42.555	443.05	552.67	41.55	508.05	600.09	34.81	405.69	639.18	63.904	467.97	511.46	566.43	124.38	609.48	517.29	110.75	543.96	481.71	137.27	569.18	603.74	100.98	617.26	434.6	113.78	632.4	421.09	249.75	498.12	292.17	113.47	541.76	189.19	113.09	477.81	221.21	123.58	556.63	264.01	104.56	465.26	103.19	123.23	485.51	92.931	205.11	406.42	67.461	162.67	420.37	40.83	193.97	408.13	40.258	133.58	567.72	36.875	79.24	604.8	45.723	184.33	657.37	62.991	129.82	445.79	1367.3	313.7	370.93	1119	326.25
908	3.7792	627.99	1068.1	313.42	526.62	1307.9	459.76	515.81	1306.4	164.18	567.83	1596.5	309.5	587.89	882.54	417.8	582.82	875.47	203.41	366.8	916.17	368.02	360.13	917.83	292.99	518.91	779.4	514.32	458.53	792.06	120.7	489.99	935.29	476.87	461.82	932.04	146.16	340.41	867.65	325.71	583.51	587.86	509.85	659.43	525.86	480.68	593.24	498.63	495.37	645.57	613.86	491.87	628.9	427.79	485.11	625.78	404.68	345.87	494.76	257.24	477.38	537.28	156.13	468.3	477.07	185.97	473.34	558.34	221.91	480.37	459.01	90.529	466.46	473.97	96.546	382.1	399.54	73.504	406.36	416.69	40.544	381.46	398.21	42.556	443.05	552.67	41.551	508.05	600.09	34.81	405.69	639.18	63.906	467.97	511.47	566.44	124.36	609.48	517.3	110.75	543.96	481.72	137.25	569.19	603.75	100.95	617.26	434.6	113.76	632.38	421.09	249.73	498.11	292.17	113.45	541.75	189.19	113.08	477.81	221.2	123.58	556.63	264.01	104.55	465.26	103.19	123.23	485.51	92.932	205.11	406.42	67.46	162.67	420.37	40.832	193.97	408.13	40.256	133.58	567.72	36.874	79.239	604.8	45.724	184.33	657.37	62.993	129.81	445.83	1367.3	313.66	370.96	1119	326.23
909	3.7833	628.02	1068.1	313.41	526.66	1307.9	459.72	515.85	1306.4	164.15	567.85	1596.5	309.45	587.91	882.56	417.77	582.83	875.48	203.39	366.82	916.19	368	360.15	917.85	292.98	518.93	779.41	514.29	458.54	792.07	120.68	490.02	935.31	476.85	461.84	932.05	146.13	340.43	867.67	325.69	583.52	587.87	509.83	659.43	525.86	480.66	593.24	498.63	495.35	645.57	613.86	491.85	628.89	427.8	485.09	625.77	404.68	345.86	494.75	257.25	477.37	537.28	156.14	468.3	477.07	185.96	473.33	558.34	221.92	480.35	459.01	90.532	466.45	473.97	96.546	382.1	399.54	73.503	406.36	416.69	40.545	381.46	398.21	42.558	443.05	552.67	41.553	508.05	600.09	34.81	405.69	639.18	63.908	467.97	511.47	566.45	124.33	609.49	517.3	110.74	543.95	481.73	137.22	569.19	603.76	100.93	617.25	434.61	113.75	632.37	421.1	249.72	498.1	292.17	113.44	541.75	189.19	113.07	477.8	221.2	123.57	556.62	264.01	104.54	465.26	103.19	123.22	485.51	92.932	205.11	406.42	67.459	162.67	420.37	40.834	193.97	408.13	40.253	133.58	567.72	36.873	79.238	604.8	45.725	184.33	657.37	62.995	129.81	445.86	1367.3	313.61	370.99	1119	326.2
910	3.7875	628.05	1068.1	313.39	526.69	1307.9	459.69	515.89	1306.4	164.12	567.87	1596.5	309.41	587.93	882.57	417.74	582.84	875.49	203.36	366.84	916.21	367.98	360.18	917.87	292.96	518.95	779.43	514.27	458.54	792.08	120.66	490.05	935.32	476.82	461.86	932.07	146.11	340.45	867.69	325.67	583.52	587.87	509.81	659.43	525.87	480.64	593.24	498.64	495.33	645.58	613.87	491.83	628.89	427.8	485.08	625.77	404.68	345.85	494.75	257.25	477.36	537.28	156.14	468.29	477.06	185.96	473.32	558.33	221.93	480.35	459.01	90.534	466.45	473.97	96.546	382.1	399.54	73.503	406.36	416.69	40.546	381.46	398.21	42.559	443.05	552.67	41.554	508.05	600.09	34.809	405.69	639.18	63.91	467.97	511.47	566.46	124.31	609.49	517.31	110.74	543.95	481.74	137.19	569.2	603.77	100.91	617.25	434.61	113.73	632.36	421.1	249.7	498.1	292.17	113.43	541.74	189.19	113.07	477.8	221.2	123.56	556.62	264.01	104.53	465.25	103.19	123.22	485.51	92.932	205.1	406.42	67.458	162.67	420.37	40.835	193.97	408.13	40.251	133.58	567.72	36.872	79.237	604.8	45.727	184.33	657.37	62.998	129.81	445.9	1367.3	313.57	371.03	1119.1	326.18
